<svg id="Layer_1" data-name="Layer 1" xmlns="http://www.w3.org/2000/svg" viewBox="0 0 358.52 53.72"><defs><style>.cls-1{fill:#00b2e5;}</style></defs><title>veracode-black</title><path class="cls-1" d="M253.43,9.14a26.86,26.86,0,1,0,26.93,27A26.93,26.93,0,0,0,253.43,9.14Zm0,43.37c-11,0-16-9.66-16-16.51s5-16.51,16-16.51c11.64,0,16,10.25,16,16.71C269.42,43,264.45,52.51,253.43,52.51ZM286.5,62V20.41h-8.17V10.05h19.11V62Z" transform="translate(-6.74 -9.14)"/><path d="M58.06,62H87.85V51.6H69V41H87.85V30.6H69V20.41H87.85V10.05H58.06ZM31.12,42.54C28.36,35.4,18.53,10.05,18.53,10.05H6.74L27.65,62h6.87L55.35,10.05H43.7S33.88,35.4,31.12,42.54Zm117.4-32.49L129.8,59.84,118.23,43.57c5.12-1.28,12.14-5.42,12.14-16.19a17.87,17.87,0,0,0-5-12.77c-3.33-3.16-7.68-4.56-14.13-4.56H94.41V62h10.94V43.73l13,18.23h22.12l4-10.75h17.07l4,10.75h11.67L157.54,10.05ZM108.18,34.8h-2.83V20.41h5.42c6.39,0,8.66,3.6,8.66,7C119.43,29.21,119.43,34.8,108.18,34.8Zm39.93,6.38c1.8-5.06,4.11-11.58,4.95-14.07L158,41.18Z" transform="translate(-6.74 -9.14)"/><path d="M365.26,20.41V10.05h-29.8V62h29.8V51.6H346.4V41h18.86V30.6H346.4V20.41Z" transform="translate(-6.74 -9.14)"/><path d="M200.11,19.49c6.68,0,10.46,4.31,11.89,5.94l.7.81h12.73l-1.77-3.08a26.06,26.06,0,0,0-7.88-9,27.66,27.66,0,0,0-15.8-5,26.86,26.86,0,1,0,23.43,40l1.67-2.94H212.17l-.6.7A15.37,15.37,0,0,1,200,52.51c-8.52,0-15.73-7.62-15.73-16.64A16.15,16.15,0,0,1,200.11,19.49Z" transform="translate(-6.74 -9.14)"/><path d="M304.64,10.05H301.8V20.41h2.78c12.31,0,15.6,9.89,15.6,15.71,0,14-11,15.48-15.74,15.48H301.8V62h2.59c8.54,0,14.94-2.39,20.11-7.51,4-3.89,6.61-11.24,6.61-18.33a29.34,29.34,0,0,0-5.28-16.43C321.17,13.29,314,10.05,304.64,10.05Z" transform="translate(-6.74 -9.14)"/></svg>