<svg id="Layer_1" data-name="Layer 1" xmlns="http://www.w3.org/2000/svg" viewBox="0 0 358.53 53.72"><defs><style>.cls-1{fill:#00b2e5;}.cls-2{fill:#fff;}</style></defs><title>veracode-white</title><path class="cls-1" d="M250.82,4.21a26.86,26.86,0,1,0,26.92,27A26.93,26.93,0,0,0,250.82,4.21Zm0,43.37c-11,0-16-9.66-16-16.51s5-16.51,16-16.51c11.63,0,16,10.25,16,16.71C266.8,38,261.84,47.58,250.82,47.58ZM283.88,57V15.48h-8.17V5.12h19.11V57Z" transform="translate(-4.12 -4.21)"/><path class="cls-2" d="M55.44,57h29.8V46.67H66.38V36H85.24V25.67H66.38V15.48H85.24V5.12H55.44ZM28.5,37.61C25.74,30.47,15.92,5.12,15.92,5.12H4.12L25,57h6.88L52.74,5.12H41.09S31.26,30.47,28.5,37.61ZM145.91,5.12,127.18,54.91,115.62,38.64c5.12-1.28,12.14-5.41,12.14-16.19a17.89,17.89,0,0,0-5-12.77c-3.33-3.15-7.69-4.56-14.13-4.56H91.8V57h10.93V38.8l13,18.23h22.12l4-10.74h17.07L163,57h11.67L154.92,5.12ZM105.56,29.88h-2.83V15.48h5.43c6.38,0,8.66,3.6,8.66,7C116.82,24.29,116.82,29.88,105.56,29.88Zm39.94,6.38c1.8-5.07,4.11-11.59,4.95-14.07l4.88,14.07Z" transform="translate(-4.12 -4.21)"/><path class="cls-2" d="M362.65,15.48V5.12h-29.8V57h29.8V46.67H343.78V36h18.87V25.67H343.78V15.48Z" transform="translate(-4.12 -4.21)"/><path class="cls-2" d="M197.49,14.56c6.69,0,10.46,4.32,11.89,5.94l.71.81h12.72L221,18.24a25.77,25.77,0,0,0-7.88-9,27.62,27.62,0,0,0-15.8-5,26.86,26.86,0,0,0-.06,53.72,26.68,26.68,0,0,0,23.49-13.77l1.67-2.94H209.55l-.59.7a15.38,15.38,0,0,1-11.6,5.66c-8.52,0-15.72-7.61-15.72-16.63S188.75,14.56,197.49,14.56Z" transform="translate(-4.12 -4.21)"/><path class="cls-2" d="M302,5.12h-2.83V15.48H302c12.31,0,15.6,9.89,15.6,15.72,0,14-11,15.47-15.73,15.47h-2.64V57h2.58c8.54,0,14.94-2.39,20.11-7.5,4-3.89,6.62-11.25,6.62-18.33a29.31,29.31,0,0,0-5.29-16.44C318.55,8.36,311.42,5.12,302,5.12Z" transform="translate(-4.12 -4.21)"/></svg>