<?xml version="1.0" encoding="UTF-8"?>
<svg id="Logos" xmlns="http://www.w3.org/2000/svg" xmlns:xlink="http://www.w3.org/1999/xlink" viewBox="0 0 1047.38 143.44">
  <defs>
    <style>
      .cls-1 {
        fill: url(#linear-gradient);
      }

      .cls-2 {
        fill: #fff;
      }
    </style>
    <linearGradient id="linear-gradient" x1="99.76" y1="1.8" x2="99.76" y2="140.16" gradientUnits="userSpaceOnUse">
      <stop offset="0" stop-color="#00b9ff"/>
      <stop offset="1" stop-color="#0065dd"/>
    </linearGradient>
  </defs>
  <polygon class="cls-2" points="31.32 1.8 0 1.8 48.63 136.34 63.08 94.21 31.32 1.8"/>
  <polygon class="cls-1" points="70.62 110.92 70.54 110.92 60.07 141.44 88.97 141.44 139.45 1.8 108.13 1.8 70.62 110.92"/>
  <polygon class="cls-2" points="184.14 82.39 243.59 82.39 243.59 59.05 184.14 59.05 184.14 27.73 249.57 27.73 249.57 1.8 154.21 1.8 154.21 141.44 251.57 141.44 251.57 115.51 184.14 115.51 184.14 82.39"/>
  <path class="cls-2" d="M378.65,48.48c0-27.33-16.16-46.68-53.26-46.68h-56.46v139.65h29.92v-46.48h25.14l26.53,46.48h29.52l-29.33-50.27c19.35-6.98,27.93-22.94,27.93-42.69ZM324.38,69.03h-25.54V27.73h25.54c16.36,0,23.54,8.18,23.54,20.75s-7.18,20.55-23.54,20.55Z"/>
  <path class="cls-2" d="M441.9,1.8l-50.47,139.65h31.32l8.98-26.13h58.85l8.98,26.13h31.32L480.4,1.8h-38.5ZM439.3,93.16l20.95-60.85h1.8l20.95,60.85h-43.69Z"/>
  <path class="cls-2" d="M596.31,25.73c14.36,0,25.73,7.18,29.72,24.54h29.13c-2.79-34.71-27.33-50.27-57.85-50.27-40.5,0-66.03,26.53-66.03,71.62s25.54,71.82,65.63,71.82c30.92,0,55.46-15.56,58.25-50.47h-29.13c-3.99,17.56-15.36,24.74-29.72,24.74-24.54,0-34.51-20.35-34.51-46.08s10.17-45.88,34.51-45.88Z"/>
  <path class="cls-2" d="M733.77,0c-40.3,0-66.63,28.73-66.63,71.62s26.33,71.82,66.63,71.82,66.63-29.13,66.63-71.82S774.07,0,733.77,0ZM733.77,117.7c-22.94,0-35.91-18.35-35.91-46.08s12.97-45.88,35.91-45.88,35.91,17.95,35.91,45.88-12.97,46.08-35.91,46.08Z"/>
  <path class="cls-2" d="M868.63,1.8h-52.87v139.65h52.87c43.49,0,66.03-24.94,66.03-69.82S912.12,1.8,868.63,1.8ZM865.64,115.51h-19.95V27.73h19.95c28.53,0,38.5,13.17,38.5,43.89s-9.98,43.89-38.5,43.89Z"/>
  <polygon class="cls-2" points="979.96 115.51 979.96 82.39 1039.41 82.39 1039.41 59.05 979.96 59.05 979.96 27.73 1045.39 27.73 1045.39 1.8 950.03 1.8 950.03 141.44 1047.38 141.44 1047.38 115.51 979.96 115.51"/>
</svg>