<?xml version="1.0" encoding="utf-8"?>
<!-- Generator: Adobe Illustrator 22.1.0, SVG Export Plug-In . SVG Version: 6.00 Build 0)  -->
<svg version="1.1" id="Layer_1" xmlns="http://www.w3.org/2000/svg" xmlns:xlink="http://www.w3.org/1999/xlink" x="0px" y="0px"
	 viewBox="0 0 298.5 98.2" style="enable-background:new 0 0 298.5 98.2;" xml:space="preserve">
<style type="text/css">
	.st0{fill:#231F20;}
	.st1{fill:#111111;}
	.st2{fill:#CBE3F7;}
	.st3{fill:#36A2E3;}
	.st4{fill:none;stroke:#CBE3F7;stroke-width:2;stroke-linecap:round;stroke-linejoin:round;stroke-miterlimit:10;}
	.st5{fill:none;stroke:#FFFFFF;stroke-miterlimit:10;}
	.st6{fill:#FFFFFF;}
	.st7{fill:#00A3DF;}
	.st8{opacity:0.2;fill:#36A2E3;}
	.st9{fill:#8FBC47;}
	.st10{fill:#FFC200;}
	.st11{fill:#02C49F;}
	.st12{fill:#9167CE;}
	.st13{fill:#FF9536;}
	.st14{fill:#1767DD;}
	.st15{fill:#FF5050;}
	.st16{opacity:0.2;fill:#8FBC47;}
	.st17{fill:#D63086;}
	.st18{opacity:0.2;fill:#D63086;}
	.st19{fill:#EBEBEB;}
	.st20{fill:#E5E7E9;}
	.st21{clip-path:url(#SVGID_2_);fill:#111111;}
	.st22{fill:none;stroke:#36A2E3;stroke-width:4;stroke-linecap:round;stroke-linejoin:round;stroke-miterlimit:10;}
	.st23{fill:none;stroke:#231F20;stroke-width:0.2099;stroke-miterlimit:10;}
	.st24{fill:#22465E;}
	.st25{fill:#18A0AB;}
	.st26{fill:#E5EFD0;}
	.st27{fill:#FFD9F0;}
	.st28{fill:url(#SVGID_3_);}
	.st29{fill:url(#SVGID_4_);}
	.st30{fill:url(#SVGID_5_);}
	.st31{fill:url(#SVGID_6_);}
	.st32{fill:url(#SVGID_7_);}
	.st33{fill:url(#SVGID_8_);}
	.st34{fill:url(#SVGID_9_);}
	.st35{opacity:0.2;fill:url(#SVGID_10_);}
	.st36{opacity:0.2;fill:none;stroke:url(#SVGID_11_);stroke-width:2;stroke-miterlimit:10;}
	.st37{opacity:0.2;fill:none;stroke:url(#SVGID_12_);stroke-width:2;stroke-miterlimit:10;}
	.st38{opacity:0.2;fill:none;stroke:url(#SVGID_13_);stroke-width:2;stroke-miterlimit:10;}
	.st39{opacity:0.2;fill:url(#SVGID_14_);}
	.st40{opacity:0.2;fill:none;stroke:url(#SVGID_15_);stroke-width:2;stroke-miterlimit:10;}
	.st41{fill:url(#SVGID_16_);}
	.st42{fill:url(#SVGID_17_);}
	.st43{fill:#0052E2;}
	.st44{clip-path:url(#SVGID_19_);fill:#111111;}
	.st45{fill:none;stroke:#FFD9F0;stroke-width:2;stroke-linecap:round;stroke-linejoin:round;stroke-miterlimit:10;}
	.st46{fill:none;stroke:#E5E7E9;stroke-width:2.4752;stroke-linecap:round;stroke-linejoin:round;stroke-miterlimit:10;}
	.st47{fill:none;stroke:#231F20;stroke-width:2;stroke-linecap:round;stroke-linejoin:round;stroke-miterlimit:10;}
	.st48{fill:#20A1DB;}
	.st49{opacity:0.2;fill:#FFFFFF;}
	.st50{clip-path:url(#SVGID_36_);}
	.st51{clip-path:url(#SVGID_39_);fill:url(#SVGID_40_);}
	.st52{fill:#F5A4CE;}
	.st53{fill:#9273AF;}
	.st54{opacity:0.25;fill:url(#SVGID_41_);}
	.st55{clip-path:url(#SVGID_44_);}
	.st56{clip-path:url(#SVGID_47_);fill:url(#SVGID_48_);}
	.st57{opacity:0.15;fill:url(#SVGID_49_);}
	.st58{fill:#00CC66;}
	.st59{clip-path:url(#SVGID_52_);}
	.st60{clip-path:url(#SVGID_55_);fill:url(#SVGID_56_);}
	.st61{opacity:0.15;fill:url(#SVGID_57_);}
	.st62{fill:url(#SVGID_58_);}
	.st63{fill:#606060;}
	.st64{fill:#00A5E9;}
	.st65{fill-rule:evenodd;clip-rule:evenodd;fill:#FFFFFE;}
</style>
<g>
	<defs>
		<rect id="SVGID_34_" x="262.4" y="370.2" width="354" height="460"/>
	</defs>
	<linearGradient id="SVGID_2_" gradientUnits="userSpaceOnUse" x1="235.931" y1="396.7216" x2="642.9383" y2="803.7289">
		<stop  offset="0" style="stop-color:#20A1DB"/>
		<stop  offset="1" style="stop-color:#001E6A"/>
	</linearGradient>
	<use xlink:href="#SVGID_34_"  style="overflow:visible;fill:url(#SVGID_2_);"/>
	<clipPath id="SVGID_3_">
		<use xlink:href="#SVGID_34_"  style="overflow:visible;"/>
	</clipPath>
	<g style="clip-path:url(#SVGID_3_);">
		<defs>
			<rect id="SVGID_37_" x="-673.6" y="-667.1" width="1440" height="2184.8"/>
		</defs>
		<linearGradient id="SVGID_4_" gradientUnits="userSpaceOnUse" x1="-859.7701" y1="-480.8653" x2="952.6394" y2="1331.5442">
			<stop  offset="0" style="stop-color:#20A1DB"/>
			<stop  offset="1" style="stop-color:#001E6A"/>
		</linearGradient>
		<use xlink:href="#SVGID_37_"  style="overflow:visible;fill:url(#SVGID_4_);"/>
		<clipPath id="SVGID_5_">
			<use xlink:href="#SVGID_37_"  style="overflow:visible;"/>
		</clipPath>
	</g>
</g>
<g>
	<defs>
		<rect id="SVGID_42_" x="660.5" y="-261.9" width="354" height="459"/>
	</defs>
	<linearGradient id="SVGID_6_" gradientUnits="userSpaceOnUse" x1="634.2662" y1="-235.611" x2="1040.7661" y2="170.889">
		<stop  offset="0" style="stop-color:#071B36"/>
		<stop  offset="1" style="stop-color:#0D2126"/>
	</linearGradient>
	<use xlink:href="#SVGID_42_"  style="overflow:visible;fill:url(#SVGID_6_);"/>
	<clipPath id="SVGID_7_">
		<use xlink:href="#SVGID_42_"  style="overflow:visible;"/>
	</clipPath>
	<g style="clip-path:url(#SVGID_7_);">
		<defs>
			<rect id="SVGID_45_" x="-275.5" y="-1296.9" width="1440" height="2180"/>
		</defs>
		<linearGradient id="SVGID_8_" gradientUnits="userSpaceOnUse" x1="-460.4839" y1="-1111.861" x2="1349.5161" y2="698.139">
			<stop  offset="0" style="stop-color:#071B36"/>
			<stop  offset="1" style="stop-color:#0D2126"/>
		</linearGradient>
		<use xlink:href="#SVGID_45_"  style="overflow:visible;fill:url(#SVGID_8_);"/>
		<clipPath id="SVGID_9_">
			<use xlink:href="#SVGID_45_"  style="overflow:visible;"/>
		</clipPath>
	</g>
</g>
<g>
	<defs>
		<rect id="SVGID_50_" x="660.5" y="-799.7" width="354" height="459"/>
	</defs>
	<linearGradient id="SVGID_10_" gradientUnits="userSpaceOnUse" x1="634.2662" y1="-773.4775" x2="1040.7661" y2="-366.9775">
		<stop  offset="0" style="stop-color:#F5A4CE"/>
		<stop  offset="1" style="stop-color:#9273AF"/>
	</linearGradient>
	<use xlink:href="#SVGID_50_"  style="overflow:visible;fill:url(#SVGID_10_);"/>
	<clipPath id="SVGID_11_">
		<use xlink:href="#SVGID_50_"  style="overflow:visible;"/>
	</clipPath>
	<g style="clip-path:url(#SVGID_11_);">
		<defs>
			<rect id="SVGID_53_" x="-275.5" y="-1834.7" width="1440" height="2180"/>
		</defs>
		<linearGradient id="SVGID_12_" gradientUnits="userSpaceOnUse" x1="-460.4839" y1="-1649.7275" x2="1349.5161" y2="160.2725">
			<stop  offset="0" style="stop-color:#F5A4CE"/>
			<stop  offset="1" style="stop-color:#9273AF"/>
		</linearGradient>
		<use xlink:href="#SVGID_53_"  style="overflow:visible;fill:url(#SVGID_12_);"/>
		<clipPath id="SVGID_13_">
			<use xlink:href="#SVGID_53_"  style="overflow:visible;"/>
		</clipPath>
	</g>
</g>
<g>
	<g>
		<path class="st64" d="M128,80c0.9,0,1.7-0.2,2.4-0.5c0.7-0.3,1.4-0.8,2.1-1.5l1.7,1.8c-1.7,1.9-3.8,2.8-6.2,2.8
			c-2.4,0-4.4-0.8-6-2.3c-1.6-1.6-2.4-3.5-2.4-5.9c0-2.4,0.8-4.4,2.5-6s3.7-2.4,6.2-2.4c2.5,0,4.6,0.9,6.2,2.8l-1.7,1.9
			c-0.8-0.7-1.5-1.2-2.2-1.5c-0.7-0.3-1.5-0.4-2.4-0.4c-1.6,0-3,0.5-4.1,1.6c-1.1,1.1-1.7,2.4-1.7,4s0.5,3,1.6,4.1
			C125.2,79.4,126.5,80,128,80z"/>
		<path class="st64" d="M152.1,80.2c-1.6,1.6-3.6,2.4-6,2.4s-4.4-0.8-6-2.4s-2.4-3.6-2.4-5.9s0.8-4.3,2.4-5.9s3.6-2.4,6-2.4
			s4.4,0.8,6,2.4c1.6,1.6,2.4,3.6,2.4,5.9S153.8,78.6,152.1,80.2z M150.2,70.1c-1.1-1.1-2.4-1.7-4-1.7s-2.9,0.6-4,1.7
			c-1.1,1.1-1.6,2.5-1.6,4.1s0.5,3,1.6,4.1c1.1,1.1,2.4,1.7,4,1.7s2.9-0.6,4-1.7c1.1-1.1,1.6-2.5,1.6-4.1S151.3,71.3,150.2,70.1z"/>
		<path class="st64" d="M162.2,82.4h-2.7V66.3h4.2l4.9,10.1l4.9-10.1h4.2v16.1h-2.7V69.9L169.3,81h-1.5l-5.6-11.2V82.4z"/>
		<path class="st64" d="M186.2,82.4h-2.7V66.3h4.2l4.9,10.1l4.9-10.1h4.2v16.1h-2.7V69.9L193.3,81h-1.5l-5.6-11.2V82.4z"/>
		<path class="st64" d="M211.1,78.7c0.7,0.9,1.7,1.3,3,1.3c1.3,0,2.3-0.4,3-1.3s1.1-2,1.1-3.5v-8.9h2.7v9c0,2.3-0.6,4.1-1.9,5.3
			c-1.3,1.2-2.9,1.9-4.9,1.9c-2,0-3.6-0.6-4.9-1.9c-1.3-1.2-1.9-3-1.9-5.3v-9h2.7v8.9C210,76.7,210.4,77.9,211.1,78.7z"/>
		<path class="st64" d="M238.7,66.3h2.7v16.1h-2.9l-9.1-11.7v11.7h-2.7V66.3h2.7l9.3,12V66.3z"/>
		<path class="st64" d="M247.3,66.3h2.7v16.1h-2.7V66.3z"/>
		<path class="st64" d="M261.9,68.8v13.6h-2.7V68.8h-4.9v-2.5h12.5v2.5H261.9z"/>
	</g>
	<g>
		<path class="st64" d="M277.6,82.4h-2.8v-6.3l-6-9.7h3l4.4,7.3l4.4-7.3h3l-6,9.7V82.4z"/>
	</g>
</g>
<g>
	<g>
		<g>
			<defs>
				<path id="SVGID_59_" d="M198.7,14.8c-11.2,0-20.3,9.1-20.3,20.3c0,11.2,9.1,20.3,20.3,20.3c11.2,0,20.3-9.1,20.3-20.2
					C219.1,23.8,210.1,14.8,198.7,14.8z M198.7,47.6c-8.3,0-12.1-7.3-12.1-12.5c0-5.2,3.7-12.5,12.1-12.5c8.8,0,12.1,7.7,12.1,12.6
					C210.8,40.4,207.1,47.6,198.7,47.6z M223.7,54.7V23.3h-6.2v-7.8H232v7.8c0,2.5,0,21.1,0,23.6v7.8H223.7z"/>
			</defs>
			<use xlink:href="#SVGID_59_"  style="overflow:visible;fill-rule:evenodd;clip-rule:evenodd;fill:#00A5E9;"/>
			<clipPath id="SVGID_14_">
				<use xlink:href="#SVGID_59_"  style="overflow:visible;"/>
			</clipPath>
		</g>
	</g>
	<g>
		<defs>
			<path id="SVGID_61_" d="M51.2,54.7h22.5v-7.8c0,0-11.9,0-14.2,0v-8c2.4,0,14.2,0,14.2,0V31c0,0-11.9,0-14.2,0v-7.7
				c2.4,0,14.2,0,14.2,0v-7.8H51.2V54.7z M30.9,40.1c-2.1-5.4-9.5-24.6-9.5-24.6h-8.9l15.8,39.2h5.2l15.7-39.2h-8.8
				C40.4,15.5,32.9,34.7,30.9,40.1z M119.5,15.5l-14.1,37.6l-8.7-12.3c3.9-1,9.2-4.1,9.2-12.2c0-3.8-1.4-7.4-3.8-9.6
				c-2.5-2.4-5.8-3.4-10.7-3.4H78.7v39.2h8.3V41l9.8,13.8h16.7c0,0,1.8-4.9,3.1-8.1h12.9c1.2,3.2,3.1,8.1,3.1,8.1h8.8l-14.9-39.2
				H119.5z M89.1,34.2c0,0-1.1,0-2.1,0V23.3c1.6,0,4.1,0,4.1,0c4.8,0,6.5,2.7,6.5,5.3C97.5,30,97.5,34.2,89.1,34.2z M119.2,39
				c1.4-3.8,3.1-8.8,3.7-10.6l3.7,10.6H119.2z"/>
		</defs>
		<use xlink:href="#SVGID_61_"  style="overflow:visible;fill-rule:evenodd;clip-rule:evenodd;fill:#FFFFFE;"/>
		<clipPath id="SVGID_15_">
			<use xlink:href="#SVGID_61_"  style="overflow:visible;"/>
		</clipPath>
	</g>
	<g>
		<defs>
			<path id="SVGID_63_" d="M283.2,23.3v-7.8h-22.5v39.2h22.5v-7.8c0,0-11.9,0-14.2,0v-8c2.4,0,14.2,0,14.2,0V31c0,0-11.9,0-14.2,0
				v-7.7C271.3,23.3,283.2,23.3,283.2,23.3"/>
		</defs>
		<use xlink:href="#SVGID_63_"  style="overflow:visible;fill-rule:evenodd;clip-rule:evenodd;fill:#FFFFFE;"/>
		<clipPath id="SVGID_16_">
			<use xlink:href="#SVGID_63_"  style="overflow:visible;"/>
		</clipPath>
	</g>
	<g>
		<defs>
			<path id="SVGID_65_" d="M158.5,22.6c5,0,7.9,3.3,9,4.5l0.5,0.6h9.6l-1.3-2.3c-1-1.7-2.5-4.3-5.9-6.8c-4.7-3.4-9.9-3.8-11.9-3.8
				c-11.1,0-20.1,9-20.1,20.2c0,11.3,9,20.4,20.1,20.4c7.4,0,14.1-3.9,17.7-10.4l1.3-2.2h-9.7l-0.4,0.5c-2.3,2.7-5.5,4.3-8.8,4.3
				c-6.4,0-11.9-5.8-11.9-12.6C146.5,28.2,151.9,22.6,158.5,22.6"/>
		</defs>
		<use xlink:href="#SVGID_65_"  style="overflow:visible;fill-rule:evenodd;clip-rule:evenodd;fill:#FFFFFE;"/>
		<clipPath id="SVGID_17_">
			<use xlink:href="#SVGID_65_"  style="overflow:visible;"/>
		</clipPath>
	</g>
	<path class="st65" d="M237.6,15.4h-2.1v7.8c1.1,0,2.1,0,2.1,0c9.2,0,11.7,7.4,11.7,11.8c0,10.5-8.3,11.6-11.8,11.6c0,0-0.9,0-2,0
		v7.8h1.9c6.4,0,11.2-1.8,15.1-5.6c3-2.9,5-8.4,5-13.8c0-4.3-1.5-8.9-4-12.3C250,17.9,244.6,15.4,237.6,15.4"/>
</g>
</svg>
