<?xml version="1.0" encoding="UTF-8"?>
<svg id="Logos" xmlns="http://www.w3.org/2000/svg" xmlns:xlink="http://www.w3.org/1999/xlink" viewBox="0 0 1046.21 143.44">
  <defs>
    <style>
      .cls-1 {
        fill: url(#linear-gradient);
      }

      .cls-2 {
        fill: #0d1117;
      }
    </style>
    <linearGradient id="linear-gradient" x1="99.76" y1="2.09" x2="99.76" y2="141.15" gradientUnits="userSpaceOnUse">
      <stop offset="0" stop-color="#00b9ff"/>
      <stop offset="1" stop-color="#0065dd"/>
    </linearGradient>
  </defs>
  <polygon class="cls-2" points="31.32 2.09 0 2.09 48.63 136.63 63.08 94.5 31.32 2.09"/>
  <polygon class="cls-1" points="70.62 111.21 70.54 111.21 60.07 141.73 88.97 141.73 139.45 2.09 108.13 2.09 70.62 111.21"/>
  <polygon class="cls-2" points="182.97 82.39 242.41 82.39 242.41 59.05 182.97 59.05 182.97 27.73 248.4 27.73 248.4 1.8 153.04 1.8 153.04 141.44 250.39 141.44 250.39 115.51 182.97 115.51 182.97 82.39"/>
  <path class="cls-2" d="M377.48,48.48c0-27.33-16.16-46.68-53.26-46.68h-56.46v139.65h29.92v-46.48h25.14l26.53,46.48h29.52l-29.33-50.27c19.35-6.98,27.93-22.94,27.93-42.69ZM323.21,69.03h-25.54V27.73h25.54c16.36,0,23.54,8.18,23.54,20.75s-7.18,20.55-23.54,20.55Z"/>
  <path class="cls-2" d="M440.73,1.8l-50.47,139.65h31.32l8.98-26.13h58.85l8.98,26.13h31.32L479.23,1.8h-38.5ZM438.13,93.16l20.95-60.85h1.8l20.95,60.85h-43.69Z"/>
  <path class="cls-2" d="M595.14,25.73c14.36,0,25.73,7.18,29.72,24.54h29.13c-2.79-34.71-27.33-50.27-57.85-50.27-40.5,0-66.03,26.53-66.03,71.62s25.54,71.82,65.63,71.82c30.92,0,55.46-15.56,58.25-50.47h-29.13c-3.99,17.56-15.36,24.74-29.72,24.74-24.54,0-34.51-20.35-34.51-46.08s10.17-45.88,34.51-45.88Z"/>
  <path class="cls-2" d="M732.6,0c-40.3,0-66.63,28.73-66.63,71.62s26.33,71.82,66.63,71.82,66.63-29.13,66.63-71.82S772.89,0,732.6,0ZM732.6,117.7c-22.94,0-35.91-18.35-35.91-46.08s12.97-45.88,35.91-45.88,35.91,17.95,35.91,45.88-12.97,46.08-35.91,46.08Z"/>
  <path class="cls-2" d="M867.46,1.8h-52.87v139.65h52.87c43.49,0,66.03-24.94,66.03-69.82S910.95,1.8,867.46,1.8ZM864.47,115.51h-19.95V27.73h19.95c28.53,0,38.5,13.17,38.5,43.89s-9.98,43.89-38.5,43.89Z"/>
  <polygon class="cls-2" points="978.78 115.51 978.78 82.39 1038.23 82.39 1038.23 59.05 978.78 59.05 978.78 27.73 1044.22 27.73 1044.22 1.8 948.86 1.8 948.86 141.44 1046.21 141.44 1046.21 115.51 978.78 115.51"/>
</svg>